<svg xmlns="http://www.w3.org/2000/svg" viewBox="0 0 403.68 585.4"><defs><style>.cls-1{fill:#68b430;}.cls-2{fill:#32bdec;}</style></defs><title>icon_v1Fichier 1</title><g id="Calque_2" data-name="Calque 2"><g id="Calque_1-2" data-name="Calque 1"><path class="cls-1" d="M77.17,314.52c-8.76-5.36-16-11.95-23.16-18.44C36.67,280.43,21.43,263,10,242.49,3.53,231,0,219,0,205.45A216.57,216.57,0,0,1,11.36,135.9,197.44,197.44,0,0,1,46.83,72.78C63.92,52.26,84.48,36,108.05,23.31,141.2,5.44,176.64-1.51,213.92.27A189.27,189.27,0,0,1,276,13.81a209.5,209.5,0,0,1,72,48.07,211.79,211.79,0,0,1,35.68,49.53c9.47,17.87,14.94,37.24,19.11,57,1.55,7.31,1.59,7.38-5.78,7-14.71-.84-29,.41-41.55,9.09-3.07,2.12-3.77.88-4.29-2.12-3.94-23-12.54-44.15-26.67-62.66-15.16-19.86-33.64-36-56.35-47.16A150.34,150.34,0,0,0,197.9,57a139.64,139.64,0,0,0-56.43,13.15c-21.75,10.09-40.12,24.59-55.94,42.47-1.14,1.29-3.3,2.56-2.62,4.33s3,.77,4.58,1c10.86,1.81,21.35,5.12,31.83,8.34,23.83,7.33,47.79,14.21,71.84,20.8,13.3,3.65,26.59,7.34,39.79,11.3a9.21,9.21,0,0,0,7.91-1c9.5-5.22,19.49-9.51,29.88-16.32-2.24,6.84-4.27,12.06-5.65,17.45-2.44,9.49-3.62,19.4-7,28.51-2.21,6-.16,9.44,2.64,13.81,11.42,17.91,23.94,35.09,35.36,53,11.54,18.07,22.83,36.31,34.83,54.09,1.26,1.87,3.1,3.91,1.29,6.32s-4,.52-5.89,0c-37.11-10.56-73.46-23.47-110-35.79-11-3.72-22.29-6.76-33-11.32-1.94-.83-3.38-.25-5.14.53A159.78,159.78,0,0,1,146,278c-3.42.76-4.27-.05-3.4-3.31,2.27-8.51,4.06-17.17,7.57-25.29a4.29,4.29,0,0,0-.43-4.57c-8.9-13.84-16.47-28.46-25.3-42.37-9.8-15.41-18.54-31.49-27.73-47.28-5.67-9.77-11.43-19.49-16.94-29.35-1.55-2.76-2.41-2-3.67,0a143,143,0,0,0-15.9,32.67c-5.69,17.5-9.13,35.44-8.7,53.94.43,18.86,2.79,37.46,8.67,55.46,5,15.15,9.52,30.47,16.85,44.75A7.3,7.3,0,0,1,77.17,314.52Z"/><path class="cls-2" d="M338.14,323.33a13.29,13.29,0,0,1,2.69-2.16c13.2-5.81,23.61-15.32,33.75-25.22,1-.95,1.88-2.84,3.61-1.84,1.39.82.4,2.43.26,3.69-1.69,14.51-3.76,29-7.6,43.08-6.62,24.16-14.51,47.92-25.29,70.69a441.29,441.29,0,0,1-35.13,60.81,452,452,0,0,1-60.58,71.88,594.12,594.12,0,0,1-46,39.82c-3,2.31-4.72,1.23-6.92-.48-12.21-9.49-23.89-19.59-35.41-29.89-19-17-35.74-36.08-52-55.64a313.78,313.78,0,0,1-26-35.2C71.68,443.88,60,424.71,51.11,404a465.12,465.12,0,0,1-19.37-52.78c-5.21-17.69-8.28-35.87-11-54.09-.67-4.47-.1-9.12-.1-14.38,12.68,12.66,25.1,25,39.46,35.13a34,34,0,0,0,6.52,13.67c17.18,23,37.62,42.2,63.59,55.35,24.31,12.32,49.59,19.26,77,18s52.14-10.8,75.2-25.07c19.16-11.85,34.8-27.51,48.05-45.62C333.07,330.65,336.7,327.76,338.14,323.33Z"/><path class="cls-1" d="M333.24,309.86c.88-8,5.57-13.86,8.34-20.5,1.88-4.53,2.9-9.54,6.71-13.2,2-1.87,3.38-3.06,5.72-.59a14.57,14.57,0,0,0,4.17,2.64c6.35,3.14,7,5.93,2.09,11.42-5.8,6.48-13,11.36-20.09,16.23C338.16,307.24,336.49,309.24,333.24,309.86Z"/></g></g></svg>